<?xml version="1.0" encoding="utf-8"?><svg xmlns="http://www.w3.org/2000/svg" xmlns:xlink="http://www.w3.org/1999/xlink"><symbol viewBox="0 0 49.98 50" id="draw"><title>draw</title><path d="M3.08 12.16a.76.76 0 0 1-.58-.25.81.81 0 0 1 0-1.17L6 7.24a.827.827 0 1 1 1.17 1.17l-3.5 3.5a.76.76 0 0 1-.58.25zm2.34 2.35a.76.76 0 0 1-.58-.25.81.81 0 0 1 0-1.17l2.33-2.33a.827.827 0 0 1 1.17 1.17l-2.33 2.33a.65.65 0 0 1-.58.25zm2.42 2.4a.76.76 0 0 1-.58-.25.81.81 0 0 1 0-1.17l3.5-3.5a.827.827 0 1 1 1.17 1.17l-3.5 3.5a.9.9 0 0 1-.58.25zm2.33 2.34a.76.76 0 0 1-.58-.25.81.81 0 0 1 0-1.17l2.33-2.33a.827.827 0 1 1 1.17 1.17L10.76 19a.76.76 0 0 1-.58.25zm2.33 2.33a.76.76 0 0 1-.58-.25.81.81 0 0 1 0-1.17l3.5-3.5a.827.827 0 0 1 1.17 1.17l-3.5 3.5a.76.76 0 0 1-.58.25zm2.42 2.33a.76.76 0 0 1-.58-.25.81.81 0 0 1 0-1.17l2.33-2.33a.827.827 0 1 1 1.17 1.17l-2.33 2.33a.9.9 0 0 1-.58.25zm11.75 11.84a.76.76 0 0 1-.58-.25.81.81 0 0 1 0-1.17l3.5-3.5A.827.827 0 0 1 30.76 32l-3.5 3.5a.76.76 0 0 1-.58.25zM29 38.08a.76.76 0 0 1-.58-.25.81.81 0 0 1 0-1.17l2.33-2.33a.827.827 0 0 1 1.17 1.17l-2.33 2.33a.76.76 0 0 1-.58.25zm2.42 2.33a.76.76 0 0 1-.58-.25.81.81 0 0 1 0-1.17l3.5-3.5a.827.827 0 1 1 1.17 1.17l-3.5 3.5a.9.9 0 0 1-.58.25zm10-.66a1.65 1.65 0 0 0-1.17.5 1.65 1.65 0 1 0 2.33 0 1.65 1.65 0 0 0-1.17-.5zm0 4.92a3.29 3.29 0 0 1-2.33-1 3.3 3.3 0 1 1 4.67 0 3.29 3.29 0 0 1-2.33 1zm-33.5-1.42l2.92 2.92L38.5 18.51l-2.92-2.92L7.91 43.26zm2.92 5a.76.76 0 0 1-.58-.25l-4.17-4.17a.81.81 0 0 1 0-1.17l28.92-28.83a.81.81 0 0 1 1.17 0l4.17 4.08a.81.81 0 0 1 0 1.17L11.43 48a.65.65 0 0 1-.58.25z"/><path d="M3.84 39.16l2.92 2.92 27.67-27.67-2.92-2.92L3.84 39.16zm2.92 4.92a.76.76 0 0 1-.58-.25L2.1 39.66a.81.81 0 0 1 0-1.17L30.93 9.66a.81.81 0 0 1 1.17 0l4.17 4.17a.81.81 0 0 1 0 1.17L7.35 43.83a.76.76 0 0 1-.58.25zM36.17 6.75l7.08 7.08 4.5-4.5a2.07 2.07 0 0 0 0-2.83L43.5 2.25a2.07 2.07 0 0 0-2.83 0l-4.5 4.5zm7.08 9.08a.76.76 0 0 1-.58-.25l-8.25-8.25a.81.81 0 0 1 0-1.17l5.08-5.08a3.62 3.62 0 0 1 5.17 0l4.25 4.25a3.67 3.67 0 0 1 0 5.17l-5.08 5.08a.76.76 0 0 1-.58.25z"/><path d="M3.17 40.83l-1.25 7.25 7.25-1.25-6-6zM.84 50a.76.76 0 0 1-.58-.25A1 1 0 0 1 .01 49l1.75-10a.81.81 0 0 1 .58-.67 1 1 0 0 1 .83.17l8.25 8.25a.66.66 0 0 1 .17.83.81.81 0 0 1-.67.58L1 49.99H.84zm31.83-39.75l7.08 7.08L42.08 15 35 7.92l-2.33 2.33zm7.08 9.08a.76.76 0 0 1-.58-.25l-8.25-8.25a.81.81 0 0 1 0-1.17l3.5-3.5a.81.81 0 0 1 1.17 0l8.25 8.25a.81.81 0 0 1 0 1.17l-3.5 3.5a.9.9 0 0 1-.58.25zM8.42 1.66a.76.76 0 0 0-.58.25L1.92 7.83a.81.81 0 0 0 0 1.17l14.83 14.83 7.08-7.08L9 1.92a.9.9 0 0 0-.58-.25zm8.33 24.17a.76.76 0 0 1-.58-.25L.75 10.16a2.42 2.42 0 0 1 0-3.5L6.67.74a2.57 2.57 0 0 1 3.5 0l15.42 15.42a.81.81 0 0 1 0 1.17l-8.25 8.25a.76.76 0 0 1-.58.25zm9.42 7.42l15 15a.38.38 0 0 0 .42 0l6.67-6.67a.38.38 0 0 0 0-.42l-15-15-7.08 7.08zM41.42 50a2 2 0 0 1-1.42-.58L24.42 33.84a.81.81 0 0 1 0-1.17l8.25-8.25a.81.81 0 0 1 1.17 0L49.42 40a2 2 0 0 1 0 2.75l-6.67 6.67a1.66 1.66 0 0 1-1.33.58z"/></symbol><symbol viewBox="0 0 66.85 50" id="drel"><title>drel</title><path d="M13.37 13.24H1.11a1.115 1.115 0 0 1 0-2.23h12.26a1.115 1.115 0 1 1 0 2.23z"/><path d="M16.71 8.78a2.23 2.23 0 0 0-2.23 2.23v2.23a2.23 2.23 0 0 0 2.23 2.23h4.46V8.78h-4.46zm5.57 8.91h-5.57a4.47 4.47 0 0 1-4.46-4.46V11a4.47 4.47 0 0 1 4.46-4.46h5.57a1.05 1.05 0 0 1 1.11 1.11v8.95a1.05 1.05 0 0 1-1.11 1.11zm35.66-8.91h-6.69a1.115 1.115 0 0 1 0-2.23h6.69a1.115 1.115 0 0 1 0 2.23zm0 4.46h-6.69a1.115 1.115 0 0 1 0-2.23h6.69a1.115 1.115 0 0 1 0 2.23zm-4.68 15.59h1.34v-6.35l-3 .67 1.67 5.68zm2.45 2.23h-3.34a1.34 1.34 0 0 1-1.11-.78l-2.23-7.58a1.26 1.26 0 0 1 .11-.89 1.64 1.64 0 0 1 .67-.56l5.57-1.34a.87.87 0 0 1 .89.22 1.38 1.38 0 0 1 .45.89v8.91a.92.92 0 0 1-1 1.11zM31.2 15.46h6.57a9 9 0 0 0-6.57-6.57v6.57zm7.8 2.23h-8.91a1.05 1.05 0 0 1-1.11-1.11V7.67a1.05 1.05 0 0 1 1.11-1.11c5 0 10 5 10 10a1.05 1.05 0 0 1-1.11 1.11z"/><path d="M55.71 19.92a1.58 1.58 0 0 1 .67.22 1.38 1.38 0 0 1 .45.89v17.72a6.93 6.93 0 0 1-2 4.79 5 5 0 0 0-1.34 3.23 1 1 0 0 0 1 1h9a1.05 1.05 0 0 0 1.11-1.11V32.18l-1.11-16.6-1-9.36a1.58 1.58 0 0 0-.22-.67 2.16 2.16 0 0 0-1.89-1.11h-.22a41.49 41.49 0 0 1-9-1 58.83 58.83 0 0 0-22.51 0 6.58 6.58 0 0 0-5.24 6.46v4.46a6.68 6.68 0 0 0 5.24 6.57 58.83 58.83 0 0 0 22.51 0l4.35-1h.22zM63.51 50h-9a3.23 3.23 0 0 1-3.23-3.23 6.93 6.93 0 0 1 2-4.79 4.46 4.46 0 0 0 1.34-3.23V22.48l-3 .67a64.14 64.14 0 0 1-23.51 0 9.07 9.07 0 0 1-6.91-8.8V9.89a9 9 0 0 1 7-8.8 64.14 64.14 0 0 1 23.51 0 35.93 35.93 0 0 0 8.47 1h.22a4.48 4.48 0 0 1 3.9 2.45 6.28 6.28 0 0 1 .45 1.34l1 9.47 1.11 16.71v14.6A3.28 3.28 0 0 1 63.52 50z"/><path d="M65.74 38.86h-4.46a1.115 1.115 0 0 1 0-2.23h4.46a1.115 1.115 0 1 1 0 2.23zm0 4.46h-4.46a1.115 1.115 0 0 1 0-2.23h4.46a1.115 1.115 0 1 1 0 2.23z"/></symbol><symbol viewBox="0 0 18.75 12" id="mail"><title>phone</title><path d="M17.98.04h-18v12h18.75v-12h-.76zm-.75.75L9.99 8.04a.9.9 0 0 1-1.24 0L1.5.8h15.73zm-16.49.3l4.87 4.87-4.87 4.87V1.04zm.6 10.2l4.8-4.8 2.08 2.08a1.62 1.62 0 0 0 2.3 0l2.08-2.08 4.8 4.8H1.37zm16.65-.46l-4.87-4.87 4.87-4.87v9.74z"/></symbol><symbol viewBox="0 0 16 18" id="phone1"><title>phone1</title><path d="M12.63 18c-1.52 0-5.21-1.94-8.32-6.12C1.41 7.98 0 5.16 0 3.26A3.05 3.05 0 0 1 1.59.67l.14-.1a3.88 3.88 0 0 1 1.93-.58 1.11 1.11 0 0 1 1.07.7c.14.28 1.29 2.74 1.4 3.05A1.33 1.33 0 0 1 5.7 5.3l-.1.07a1.85 1.85 0 0 0-.86 1 .88.88 0 0 0 .21.67c.89 1.2 3.73 4.72 4.24 5.2a.93.93 0 0 0 1.26.14 5.32 5.32 0 0 0 .52-.48 1.24 1.24 0 0 1 .77-.25 1.78 1.78 0 0 1 1 .34l2.81 1.88a1.31 1.31 0 0 1 .19 1.63c-.43.83-1.78 2.54-3.18 2.54zM3.63.67a3.2 3.2 0 0 0-1.54.46l-.15.1a2.41 2.41 0 0 0-1.3 2c0 1.75 1.37 4.44 4.18 8.22 3.07 4.13 6.58 5.85 7.78 5.85 1 0 2.19-1.42 2.59-2.18a.65.65 0 0 0 0-.8l-2.78-1.87a1.13 1.13 0 0 0-.62-.22.63.63 0 0 0-.33.09 6.61 6.61 0 0 1-.56.52 1.61 1.61 0 0 1-2.14-.16c-.58-.54-3.49-4.17-4.32-5.29a1.52 1.52 0 0 1-.34-1.17 2.38 2.38 0 0 1 1.13-1.41l.05-.07a.68.68 0 0 0 .2-.78c-.1-.26-1.23-2.7-1.38-3a.46.46 0 0 0-.48-.33z"/></symbol><symbol viewBox="0 0 16.67 25" id="point"><title>point</title><path d="M8.33.83a7.5 7.5 0 0 1 6.49 11.25L8.33 23.33 1.84 12.08A7.5 7.5 0 0 1 8.33.83zm0 10.42a2.92 2.92 0 1 0-2.92-2.92 2.92 2.92 0 0 0 2.92 2.9zM8.33 0a8.33 8.33 0 0 0-7.21 12.5L8.33 25l7.21-12.5A8.33 8.33 0 0 0 8.33 0zm0 10.42a2.08 2.08 0 1 1 2.08-2.08 2.08 2.08 0 0 1-2.08 2.08z"/></symbol><symbol viewBox="0 0 47.5 50" id="postanovlenie"><title>postanovlenie</title><path d="M9.17 20H30a.83.83 0 1 0 0-1.66H9.17a.83.83 0 1 0 0 1.66zm0-6.63h8.33a.835.835 0 0 0 0-1.67H9.17a.835.835 0 0 0 0 1.67zm0 13.3H30A.835.835 0 0 0 30 25H9.17a.835.835 0 0 0 0 1.67zm14.16 4.99H9.17a.835.835 0 0 0 0 1.67h14.16a.835.835 0 0 0 0-1.67zm-2.5 6.71H9.16a.83.83 0 1 0 0 1.66h11.67a.83.83 0 1 0 0-1.66zm0 0"/><path d="M39.17 28.63V12.15L27.01 0h-27v50h36.67a10.83 10.83 0 0 0 2.5-21.36zM27.5 2.84l8.82 8.82H27.5V2.84zm3.4 45.49H1.67V1.67h24.17v11.7h11.67v15h-.83a10.85 10.85 0 0 0-10.83 10.84v1.23c0 .32.08.63.14.94v.11c.06.28.13.56.22.83l.06.21c.09.29.2.58.32.86l.07.16c.11.25.22.49.35.72l.09.17c.15.26.3.52.47.77l.12.17c.16.22.31.44.48.64l.09.12c.2.23.4.46.61.67l.16.15c.2.2.41.39.63.58h.06c.23.19.48.37.73.55l.18.12.19.13zm5.77 0a9.17 9.17 0 1 1 0-18.33h.77l.76.1.37.06a9.16 9.16 0 0 1-1.9 18.13zm0 0"/><path d="M40.98 34.52l-4.66 6.7-3.29-2.7a.835.835 0 0 0-1.06 1.29l4 3.27a.82.82 0 0 0 .52.19h.11a.84.84 0 0 0 .57-.35l5.18-7.44a.848.848 0 1 0-1.37-1zm0 0"/></symbol><symbol viewBox="0 0 50.29 38.08" id="proizvodstvo"><defs><clipPath id="ga" transform="translate(-576.11 -713.42)"><path d="M576.11 701.63h50.28v50h-50.28z"/></clipPath></defs><title>proizvodstvo</title><g clip-path="url(#ga)"><path d="M50.17 38.07v-26l-8.88 9.09v-9.08l-8.88 9.09v-9.09L23 21.82 21.89 0h-7.81l-1.07 22.25h-2.42L9.52 0H1.81L-.01 38.08h50.16zm-1.92-2.13h-46L3.89 2.13h3.75l1.07 22.25h6.74l1.07-22.25h3.63l1.07 22.26h2.46l6.85-7.06v7.06h2l6.85-7.06v7.06h2l6.85-7.06v18.61zm0 0"/></g></symbol><symbol viewBox="0 0 50 50" id="reklama"><title>reklama</title><path d="M43 10.64h-4.51V0H11.6v10.64H7a7.2 7.2 0 0 0-7 7.33V30.6a7.2 7.2 0 0 0 7 7.33h3.42V50h29.07V37.92H43a7.2 7.2 0 0 0 7-7.33V17.97a7.2 7.2 0 0 0-7-7.33zM13.73 2.13h22.64v8.51H13.73V2.13zm23.72 45.74H12.64V29.61h24.81v18.26zm10.47-17.28a5.07 5.07 0 0 1-4.92 5.2h-3.42v-8.31H10.51v8.31H7a5.07 5.07 0 0 1-4.92-5.2V17.97A5.07 5.07 0 0 1 7 12.77h36a5.07 5.07 0 0 1 4.92 5.2V30.6zm0 0"/><path d="M17.75 34.49h14.49v2.13H17.75zm0 5.87h14.49v2.13H17.75zm19.63-22.67h3.18v2.13h-3.18z"/></symbol><symbol viewBox="0 0 49.99 50" id="remont"><title>remont</title><path d="M34.57 39.84a.76.76 0 0 1-.58-.25.81.81 0 0 1 0-1.17l1.67-1.67a.827.827 0 0 1 1.17 1.17l-1.67 1.67a.76.76 0 0 1-.58.25zM2 5.27a5 5 0 1 0 8.33-2.08 4.92 4.92 0 0 0-2.67-1.42l1.83 3.17a.62.62 0 0 1 0 .75l-.17.42a4.75 4.75 0 0 1-4.5 2.58H4.4a.85.85 0 0 1-.67-.42l-1.75-3zm4.83 8.08A6.71 6.71 0 0 1 1.27 3.02a.61.61 0 0 1 .67-.33.74.74 0 0 1 .67.42l2.42 4a2.93 2.93 0 0 0 2.83-1.67L5.53 1.28a.76.76 0 0 1 0-.83 1.06 1.06 0 0 1 .58-.42 6.84 6.84 0 0 1 5.41 1.92 6.68 6.68 0 0 1-1 10.24 6 6 0 0 1-3.66 1.17zm36.44 24.82a4.65 4.65 0 0 0-2.75.83 5 5 0 0 0-.83 7.66 4.92 4.92 0 0 0 2.67 1.42l-1.83-3.17a.62.62 0 0 1 0-.75l.17-.42a4.61 4.61 0 0 1 4.5-2.58h.42a.85.85 0 0 1 .67.42l1.75 3a5.07 5.07 0 0 0-1.92-5.5 5 5 0 0 0-2.83-.92zm0 11.66a6.55 6.55 0 0 1-4.66-1.92 6.65 6.65 0 1 1 10.24-1.08 1.12 1.12 0 0 1-.75.42.74.74 0 0 1-.67-.42l-2.33-4a3 3 0 0 0-2.92 1.67l2.42 4.08a.76.76 0 0 1 0 .83.85.85 0 0 1-.67.42h-.66zm-10.7-12.66a.76.76 0 0 1-.58-.25.81.81 0 0 1 0-1.17l1.33-1.33a.827.827 0 1 1 1.17 1.17l-1.33 1.33a.76.76 0 0 1-.58.25zm5.49-14.16l2.92 2.92a.81.81 0 0 0 1.17 0l5.91-5.91a.81.81 0 0 0 0-1.17l-2.92-2.92a1.4 1.4 0 0 1-1.17.5 1.84 1.84 0 0 1-1.25-.5 3.06 3.06 0 0 1-1.08-2.58 4.78 4.78 0 0 0-.08-1 3.91 3.91 0 0 0-1.17-2.33l-3-3c-1.75-1.75-2.42-2.42-4.41-3.25-3.5-1.58-7-1.67-11.74-.17 2.25.25 4.25 1.08 6.91 3.66a5.5 5.5 0 0 1 .33 7.41l3.58 3.58a3.7 3.7 0 0 0 2.33 1.17 4.78 4.78 0 0 0 1 .08 3.06 3.06 0 0 1 2.58 1.08 1.84 1.84 0 0 1 .5 1.25 1.16 1.16 0 0 1-.42 1.17zm3.5 4.91a2.27 2.27 0 0 1-1.75-.75l-2.92-2.92a1.84 1.84 0 0 1-.5-1.25 1.34 1.34 0 0 1 .5-1.08 1.68 1.68 0 0 0-1.5-.58 6.34 6.34 0 0 1-1.17-.08 5.83 5.83 0 0 1-3.25-1.67l-4.08-4.08a.81.81 0 0 1 0-1.17 4 4 0 0 0 .17-5.75c-3.33-3.33-5.25-3.33-8.91-3.33h-1.08a.81.81 0 0 1-.83-.67.75.75 0 0 1 .5-.92C23.9.42 28.82.01 33.65 2.25a13.57 13.57 0 0 1 4.83 3.58l3 3a5.83 5.83 0 0 1 1.67 3.25 3.68 3.68 0 0 1 .17 1.25 1.39 1.39 0 0 0 .67 1.42 2.09 2.09 0 0 1 1.17-.5 1.64 1.64 0 0 1 1.17.5l2.92 2.92a2.4 2.4 0 0 1 .75 1.75 2.27 2.27 0 0 1-.75 1.75l-5.91 5.91a2.09 2.09 0 0 1-1.75.83z"/><path d="M27.49 16.01L2.27 44.25a1.77 1.77 0 0 0-.58 1.33 1.64 1.64 0 0 0 .5 1.17l1.17 1.08a1.71 1.71 0 0 0 2.42-.08l25.24-28.24-3.5-3.5zm-23 34a3.58 3.58 0 0 1-2.33-.92L.99 47.92a3.34 3.34 0 0 1-1-2.42 3.53 3.53 0 0 1 1-2.5l25.82-28.82a.81.81 0 0 1 1.17 0l4.75 4.75a.81.81 0 0 1 0 1.17L6.91 49a3.48 3.48 0 0 1-2.42 1z"/><path d="M4.5 45.17a.76.76 0 0 1-.58-.25l-1.75-1.75A.827.827 0 1 1 3.34 42l1.75 1.75a.81.81 0 0 1 0 1.17.76.76 0 0 1-.58.25zm2.33-2.34a.76.76 0 0 1-.58-.25L4.5 40.83a.827.827 0 0 1 1.17-1.17l1.75 1.75a.81.81 0 0 1 0 1.17.76.76 0 0 1-.58.25z"/><path d="M27.49 16.01L2.27 44.25a1.77 1.77 0 0 0-.58 1.33 1.64 1.64 0 0 0 .5 1.17l1.17 1.08a1.71 1.71 0 0 0 2.42-.08l25.24-28.24-3.5-3.5zm-23 34a3.58 3.58 0 0 1-2.33-.92L.99 47.92a3.34 3.34 0 0 1-1-2.42 3.53 3.53 0 0 1 1-2.5l25.82-28.82a.81.81 0 0 1 1.17 0l4.75 4.75a.81.81 0 0 1 0 1.17L6.91 49a3.48 3.48 0 0 1-2.42 1z"/><path d="M27.49 16.01L2.27 44.25a1.77 1.77 0 0 0-.58 1.33 1.64 1.64 0 0 0 .5 1.17l1.17 1.08a1.71 1.71 0 0 0 2.42-.08l25.24-28.24-3.5-3.5zm-23 34a3.58 3.58 0 0 1-2.33-.92L.99 47.92a3.34 3.34 0 0 1-1-2.42 3.53 3.53 0 0 1 1-2.5l25.82-28.82a.81.81 0 0 1 1.17 0l4.75 4.75a.81.81 0 0 1 0 1.17L6.91 49a3.48 3.48 0 0 1-2.42 1z"/><path d="M9.16 12.92a36.61 36.61 0 0 1 7.66 6.16l3 3 2.25-2.5-2.92-2.92A39 39 0 0 1 13.07 9a6.56 6.56 0 0 1-2.58 3.25 10 10 0 0 1-1.33.67zM19.9 24.08a.76.76 0 0 1-.58-.25l-3.66-3.58a36.16 36.16 0 0 0-9.25-6.91.63.63 0 0 1-.42-.58 1.34 1.34 0 0 1 .25-.75l.08-.08a.59.59 0 0 1 .5-.25 5 5 0 0 0 4.91-4.91.76.76 0 0 1 .25-.58l.08-.08a1.34 1.34 0 0 1 .75-.25.63.63 0 0 1 .58.42 36.16 36.16 0 0 0 6.91 9.25l3.41 3.41a.81.81 0 0 1 0 1.17l-3.33 3.75a.71.71 0 0 1-.5.25zm5.84 3.84l5.25 5.25A57.63 57.63 0 0 1 37.07 41a6.67 6.67 0 0 1 2.67-3.41 6.31 6.31 0 0 1 1.5-.75 48.52 48.52 0 0 1-7.83-6.08L28 25.35l-2.25 2.58zM37.4 44h-.13a.7.7 0 0 1-.58-.33 67.39 67.39 0 0 0-7-9.33l-5.83-5.83a.81.81 0 0 1 0-1.17l3.33-3.75a.81.81 0 0 1 1.17 0l6 6a62.49 62.49 0 0 0 9.33 7 .63.63 0 0 1 .33.58 1 1 0 0 1-.25.67l-.08.08a.76.76 0 0 1-.58.25 4.81 4.81 0 0 0-2.67.83 5.21 5.21 0 0 0-2.17 4.16.76.76 0 0 1-.25.58l-.08.08a1 1 0 0 1-.58.17z"/></symbol><symbol viewBox="0 0 51 51" id="russia"><title>russia</title><path d="M25.5 22.17a5.83 5.83 0 1 0-5.84-5.84 5.84 5.84 0 0 0 5.84 5.84zm0-10a4.17 4.17 0 1 1-4.17 4.17 4.17 4.17 0 0 1 4.17-4.17zm0 0"/><path d="M25.35 46.13l12.79-18.47c4.79-6.39 4.1-16.9-1.49-22.48a16 16 0 0 0-22.6 0c-5.59 5.59-6.28 16.09-1.51 22.46zM15.23 6.36a14.32 14.32 0 0 1 20.24 0c5 5 5.66 14.53 1.31 20.33L25.35 43.2 13.9 26.67c-4.33-5.78-3.71-15.27 1.33-20.31zm0 0"/><path d="M35.6 36.34a.835.835 0 1 0-.19 1.66c8.76 1 13.43 3.81 13.43 5.42 0 2.26-8.87 5.42-23.33 5.42S2.18 45.69 2.18 43.42c0-1.61 4.67-4.39 13.43-5.42a.835.835 0 1 0-.19-1.66c-8.77 1-14.9 3.94-14.9 7.08 0 3.52 8.59 7.08 25 7.08s25-3.56 25-7.08c0-3.13-6.13-6-14.9-7.08zm0 0"/></symbol><symbol viewBox="0 0 36.18 50" id="soglasovanie"><title>soglasovanie</title><path d="M32.78 3.46h-6.23a2.54 2.54 0 0 0-2.4-1.73h-2.64a4.23 4.23 0 0 0-6.82 0h-2.64a2.54 2.54 0 0 0-2.4 1.73H3.42a3.41 3.41 0 0 0-3.4 3.4V46.6a3.41 3.41 0 0 0 3.4 3.4h29.37a3.41 3.41 0 0 0 3.4-3.4V6.83a3.41 3.41 0 0 0-3.4-3.4zM9.64 8.54a2.54 2.54 0 0 0 2.4 1.73h12.1a2.54 2.54 0 0 0 2.4-1.73h4.56v36.39h-26V8.54h4.56zm2.4-5.18h3.07a.81.81 0 0 0 .7-.4 2.62 2.62 0 0 1 4.55 0 .81.81 0 0 0 .7.4h3.07a.92.92 0 0 1 .92.92v3.45a.92.92 0 0 1-.92.92h-12.1a.92.92 0 0 1-.92-.92V4.28a.92.92 0 0 1 .92-.92zm22.52 43.25a1.78 1.78 0 0 1-1.78 1.78H3.4a1.78 1.78 0 0 1-1.78-1.78V6.83A1.78 1.78 0 0 1 3.4 5.05h6.1v1.84H4.26a.81.81 0 0 0-.81.81v38a.81.81 0 0 0 .81.81H31.9a.81.81 0 0 0 .81-.81v-38a.81.81 0 0 0-.81-.81h-5.24V5.05h6.1a1.78 1.78 0 0 1 1.78 1.78v39.74zm0 0"/><path d="M18.09 6.83a.81.81 0 0 0 .81-.81V4.29a.81.81 0 1 0-1.62 0v1.73a.81.81 0 0 0 .81.81zm.86 11.21h5.18a.81.81 0 0 0 0-1.62h-5.18a.81.81 0 0 0 0 1.62zm0 3.45h8.64a.81.81 0 0 0 0-1.62h-8.64a.81.81 0 0 0 0 1.62zm-8.34-.23a.81.81 0 0 0 1.15 0l4.32-4.32a.81.81 0 0 0-1.18-1.11l-3.75 3.75-2-2A.813.813 0 0 0 8 18.73zm8.34 5.42h5.18a.81.81 0 0 0 0-1.62h-5.18a.81.81 0 0 0 0 1.62zm0 3.45h8.64a.81.81 0 0 0 0-1.62h-8.64a.81.81 0 0 0 0 1.62zm-8.34-.23a.81.81 0 0 0 1.15 0l4.32-4.32a.813.813 0 1 0-1.15-1.15l-3.75 3.75-2-2a.813.813 0 0 0-1.15 1.15zm8.34 5.42h5.18a.81.81 0 0 0 0-1.62h-5.18a.81.81 0 0 0 0 1.62zm0 3.45h8.64a.81.81 0 0 0 0-1.62h-8.64a.81.81 0 0 0 0 1.62zm-8.34-.23a.81.81 0 0 0 1.15 0l4.32-4.32a.813.813 0 0 0-1.15-1.15l-3.75 3.75-2-2a.813.813 0 0 0-1.15 1.15zm0 0"/></symbol></svg>